<?xml version="1.0" encoding="utf-8"?>
<!-- Generator: Adobe Illustrator 19.0.0, SVG Export Plug-In . SVG Version: 6.00 Build 0)  -->
<svg version="1.1" id="图层_1" xmlns="http://www.w3.org/2000/svg" xmlns:xlink="http://www.w3.org/1999/xlink" x="0px" y="0px"
	 viewBox="0 0 25 25" style="enable-background:new 0 0 25 25;" xml:space="preserve">
<style type="text/css">
	.st0{fill:#A3A3A3;}
</style>
<g id="android_1_">
	<g id="android">
		<g id="XMLID_41_">
			<path id="XMLID_42_" class="st0" d="M7.1,17.5c0,0.7,0.6,1.3,1.2,1.3h0.9c0,0.1,0,0.2,0,0.3v2.5c0,0.7,0.5,1.2,1.2,1.2
				c0.6,0,1.2-0.5,1.2-1.2v-2.5c0-0.1,0-0.2,0-0.3h2.2c0,0.1,0,0.2,0,0.3v2.5c0,0.7,0.5,1.2,1.2,1.2s1.2-0.5,1.2-1.2v-2.5
				c0-0.1,0-0.2,0-0.3h0.9c0.7,0,1.2-0.6,1.2-1.3V8.7H7.1L7.1,17.5L7.1,17.5z M5.1,8.7C4.5,8.7,4,9.2,4,9.9V15
				c0,0.7,0.5,1.2,1.2,1.2s1.2-0.5,1.2-1.2V9.9C6.3,9.2,5.8,8.7,5.1,8.7z M19.9,8.7c-0.6,0-1.2,0.5-1.2,1.2V15
				c0,0.7,0.5,1.2,1.2,1.2S21,15.7,21,15V9.9C21,9.2,20.5,8.7,19.9,8.7z M15.2,3.9l0.2-0.3l0.2-0.3l0.5-0.8c0.1-0.1,0-0.2-0.1-0.3
				c-0.1-0.1-0.2,0-0.3,0.1l-0.5,0.8L15,3.4l-0.2,0.3c-0.7-0.3-1.5-0.4-2.3-0.4s-1.6,0.2-2.3,0.4L10,3.4L9.7,3.1L9.2,2.3
				C9.2,2.2,9,2.2,8.9,2.2C8.9,2.3,8.8,2.4,8.9,2.5l0.5,0.8l0.2,0.3l0.2,0.3C8.2,4.7,7,6.2,7,7.9h10.9C17.9,6.2,16.8,4.7,15.2,3.9z
				 M10.2,6.3C9.8,6.3,9.6,6,9.6,5.7s0.3-0.6,0.6-0.6s0.6,0.3,0.6,0.6S10.5,6.3,10.2,6.3z M14.8,6.3c-0.3,0-0.6-0.3-0.6-0.6
				s0.3-0.6,0.6-0.6s0.6,0.3,0.6,0.6S15.1,6.3,14.8,6.3z"/>
		</g>
	</g>
</g>
</svg>
