<?xml version="1.0" encoding="utf-8"?>
<!-- Generator: Adobe Illustrator 19.0.0, SVG Export Plug-In . SVG Version: 6.00 Build 0)  -->
<svg version="1.1" id="图层_1" xmlns="http://www.w3.org/2000/svg" xmlns:xlink="http://www.w3.org/1999/xlink" x="0px" y="0px"
	 viewBox="0 0 25 25" style="enable-background:new 0 0 25 25;" xml:space="preserve">
<style type="text/css">
	.st0{fill:#A3A3A3;}
</style>
<path id="XMLID_39_" class="st0" d="M8.2,11.4L5.7,7.1c1.6-2,4-3.3,6.8-3.3c3.2,0,6,1.7,7.5,4.3h-7.1c-0.1,0-0.3,0-0.4,0
	C10.4,8.1,8.7,9.5,8.2,11.4z M15.6,9.3h5c0.4,1,0.6,2,0.6,3.2c0,4.8-3.8,8.6-8.6,8.7l3.5-6.1c0.5-0.7,0.8-1.6,0.8-2.5
	C16.9,11.3,16.4,10.1,15.6,9.3z M9.3,12.5c0-1.7,1.4-3.2,3.2-3.2s3.2,1.4,3.2,3.2c0,1.7-1.4,3.2-3.2,3.2S9.3,14.2,9.3,12.5z
	 M13.7,16.8l-2.5,4.3c-4.2-0.6-7.4-4.2-7.4-8.6c0-1.5,0.4-3,1.1-4.3l3.5,6.1c0.7,1.5,2.2,2.6,4,2.6C12.9,16.9,13.3,16.9,13.7,16.8z"
	/>
</svg>
