<?xml version="1.0" encoding="utf-8"?>
<!-- Generator: Adobe Illustrator 19.0.0, SVG Export Plug-In . SVG Version: 6.00 Build 0)  -->
<svg version="1.1" id="图层_1" xmlns="http://www.w3.org/2000/svg" xmlns:xlink="http://www.w3.org/1999/xlink" x="0px" y="0px"
	 viewBox="0 0 25 25" style="enable-background:new 0 0 25 25;" xml:space="preserve">
<style type="text/css">
	.st0{fill:#A3A3A3;}
</style>
<path id="XMLID_22_" class="st0" d="M21.9,9.2l-0.2,1.4c0,0-0.3-2.6-0.7-3.6c-0.6-1.5-0.9-1.5-0.9-1.5c0.4,1,0.3,1.5,0.3,1.5
	s-0.7-1.9-2.5-2.5c-2-0.7-3.2-0.5-3.3-0.5c0,0,0,0-0.1,0c0,0,0,0,0,0c0,0,0,0,0,0c0,0,2.3,0.4,2.7,0.9c0,0-1,0-1.9,0.3
	c0,0,3.5,0.4,4.2,4c0,0-0.4-0.8-0.9-0.9c0.3,1,0.2,2.8-0.1,3.7c0,0.1-0.1-0.5-0.7-0.8c0.2,1.4,0,3.5-1,4.1c-0.1,0,0.6-2.1,0.1-1.3
	c-2.6,4-5.8,1.9-7.2,0.9c0.7,0.2,2.1,0,2.7-0.5c0,0,0,0,0,0c0.7-0.4,1-0.8,1.4-0.7c0.3,0.1,0.6-0.3,0.3-0.6
	c-0.3-0.3-0.9-0.7-1.8-0.5C12,13,11.2,13.7,10,13c-0.9-0.5-1-1-1-1.3c0-0.1,0.1-0.2,0.1-0.3C9.2,11,9.5,11,9.7,10.9
	c0.3,0.1,0.6,0.1,0.8,0.3c0-0.1,0-0.2,0-0.3c0-0.1,0-0.2,0-0.4c0-0.2-0.1-0.4-0.1-0.6c0,0,0,0,0,0c0,0,0,0,0,0c0,0,0,0,0,0
	c0,0,0,0,0,0c0,0,0,0,0,0c0-0.1,0.2-0.3,0.5-0.4c0.2-0.2,0.5-0.3,0.7-0.5c0.2-0.1,0.3-0.2,0.4-0.2c0,0,0,0,0,0c0,0,0,0,0,0
	c0,0,0,0,0,0c0.1-0.1,0.2-0.2,0.3-0.5c0,0,0,0,0,0c0,0,0,0,0,0c0,0,0,0,0,0c0,0,0,0,0,0c0,0,0,0,0,0c0,0,0,0,0,0c0,0,0-0.1,0-0.1
	c0,0,0,0,0-0.1c0,0,0,0,0,0c0,0,0,0,0,0c0,0,0,0,0,0c0,0,0,0,0,0c0,0,0,0,0,0c0,0,0,0,0,0c0-0.1-0.2-0.1-0.7-0.1c0,0,0,0,0,0l0,0
	c-0.2,0-0.5,0-0.8,0c-0.6,0-1-0.6-1.1-0.8c0.1-0.8,0.6-1.4,1.3-1.8c0,0,0,0,0,0c0.1-0.1-1.7,0-2.5,1.1C7.7,6,7.1,6,6.5,6.1
	c-0.1,0-0.2,0-0.4,0c-0.4-0.3-0.9-1-0.9-1.7c0,0,0,0,0,0c0,0,0,0,0,0c0,0-1.1,0.9-1,3.2c0,0,0,0.1,0,0.1C4,8.1,3.8,8.4,3.8,8.5
	C3.5,9.1,3.3,9.9,3,11.1c0,0,0.2-0.5,0.5-1.1c-0.2,0.7-0.4,1.8-0.3,3.4c0,0,0-0.4,0.1-0.9c0.1,1,0.4,2.3,1.3,3.7
	c1.6,2.8,4.2,4.3,7,4.5c0.5,0,1,0,1.5,0c0,0,0.1,0,0.1,0c0.6,0,1.1-0.1,1.7-0.3C22.8,18.7,21.9,9.2,21.9,9.2z"/>
</svg>
