<?xml version="1.0" encoding="utf-8"?>
<!-- Generator: Adobe Illustrator 19.0.0, SVG Export Plug-In . SVG Version: 6.00 Build 0)  -->
<svg version="1.1" id="图层_1" xmlns="http://www.w3.org/2000/svg" xmlns:xlink="http://www.w3.org/1999/xlink" x="0px" y="0px"
	 viewBox="0 0 25 25" style="enable-background:new 0 0 25 25;" xml:space="preserve">
<style type="text/css">
	.st0{fill:#A3A3A3;}
</style>
<path id="XMLID_34_" class="st0" d="M17.1,13.9h4.4c0-0.3,0-0.6,0-0.9c0-1.5-0.4-2.9-1.1-4.1c0.7-1.9,0.7-3.5-0.3-4.5
	c-0.9-0.9-3.4-0.8-6.1,0.5c-0.2,0-0.4,0-0.6,0c-3.8,0-7,2.6-7.9,6.2c1.2-1.5,2.5-2.6,4.1-3.4c-0.2,0.1-1,1-1.2,1.2
	C4,13.1,2.6,18.9,4.1,20.4c1.1,1.1,3.2,0.9,5.6-0.2c1.1,0.6,2.4,0.9,3.7,0.9c3.6,0,6.6-2.3,7.7-5.5h-4.4c-0.6,1.1-1.8,1.9-3.1,1.9
	c-1.4,0-2.5-0.8-3.1-1.9c-0.3-0.5-0.4-1.1-0.4-1.7v0H17.1z M9.9,11.7c0.1-1.8,1.6-3.2,3.4-3.2s3.3,1.4,3.4,3.2H9.9z M20.1,5.3
	c0.6,0.6,0.6,1.8,0.1,3.2c-0.9-1.4-2.2-2.5-3.8-3.1C18,4.7,19.4,4.6,20.1,5.3z M5.2,20.1c-0.8-0.8-0.6-2.5,0.5-4.5
	c0.6,1.8,1.9,3.3,3.5,4.2C7.4,20.7,6,20.9,5.2,20.1z"/>
</svg>
