<?xml version="1.0" encoding="utf-8"?>
<!-- Generator: Adobe Illustrator 19.0.0, SVG Export Plug-In . SVG Version: 6.00 Build 0)  -->
<svg version="1.1" id="图层_1" xmlns="http://www.w3.org/2000/svg" xmlns:xlink="http://www.w3.org/1999/xlink" x="0px" y="0px"
	 viewBox="0 0 25 25" style="enable-background:new 0 0 25 25;" xml:space="preserve">
<style type="text/css">
	.st0{fill:#A3A3A3;}
</style>
<g id="XMLID_56_">
	<path id="XMLID_65_" class="st0" d="M2.2,18.7V9.6h1.3v9.1H2.2z M2.9,8.5c-0.4,0-0.8-0.4-0.8-0.8c0-0.5,0.4-0.8,0.8-0.8
		c0.5,0,0.8,0.4,0.8,0.8C3.7,8.1,3.3,8.5,2.9,8.5z"/>
	<path id="XMLID_62_" class="st0" d="M10.1,18.8c-3.5,0-5.1-3.1-5.1-6.2c0-3.2,1.6-6.4,5.2-6.4c3.1,0,5,2.5,5,6.2
		C15.4,17.1,12.5,18.8,10.1,18.8z M10.3,7.6c-2.9,0-3.9,2.7-3.9,4.9c0,2.3,1,5,3.8,5c2.7,0,3.9-2.5,3.9-5C14,10.1,13.1,7.6,10.3,7.6
		z"/>
	<path id="XMLID_57_" class="st0" d="M19.1,18.8c-1,0-2.1-0.3-2.7-0.8L16,17.8l0.5-1.2l0.5,0.3c0.5,0.3,1.3,0.6,2.1,0.6
		c1.2,0,2.5-0.8,2.5-2.2c0-1.1-0.6-1.8-2.2-2.5c-1.2-0.5-3-1.3-3-3.3c0-1.9,1.5-3.3,3.6-3.3c1.1,0,1.9,0.3,2.3,0.6L22.7,7l-0.6,1.2
		l-0.5-0.3c-0.2-0.1-0.8-0.4-1.6-0.4c-1.6,0-2.2,1.2-2.2,2c0,1,0.7,1.4,2.1,2.1l0.1,0.1c1.8,0.9,2.9,1.8,2.9,3.6
		C22.9,17.3,21.3,18.8,19.1,18.8z"/>
</g>
</svg>
