<?xml version="1.0" encoding="utf-8"?>
<!-- Generator: Adobe Illustrator 19.0.0, SVG Export Plug-In . SVG Version: 6.00 Build 0)  -->
<svg version="1.1" id="图层_1" xmlns="http://www.w3.org/2000/svg" xmlns:xlink="http://www.w3.org/1999/xlink" x="0px" y="0px"
	 viewBox="0 0 1000 1000" style="enable-background:new 0 0 1000 1000;" xml:space="preserve">
<style type="text/css">
	.st0{fill:url(#XMLID_2_);}
	.st1{fill:url(#XMLID_3_);}
</style>
<g id="XMLID_12_">
	<linearGradient id="XMLID_2_" gradientUnits="userSpaceOnUse" x1="500" y1="269.102" x2="500" y2="728.1011">
		<stop  offset="0" style="stop-color:#1AE0EE"/>
		<stop  offset="1" style="stop-color:#00B2BF"/>
	</linearGradient>
	<path id="XMLID_15_" class="st0" d="M333,625.5l13.4-11.1c-4.5-5.4-8.7-11-12.6-16.8c-20.3-30.4-31.7-65.5-33.3-102h83.8
		c0.2,7.9,0.8,15.7,1.6,23.4l17.3-1.9c-0.8-7.1-1.3-14.3-1.5-21.5h89.6v7.6h17.4v-7.6h89.6c-0.2,7.1-0.7,14.1-1.5,21.1l17.3,1.9
		c0.8-7.6,1.4-15.2,1.6-23h83.8c-1,23.9-6.2,47.1-15.5,69c-4.7,11.2-10.6,22.1-17.3,32.3c-4,6.1-8.4,12-13.1,17.6l13.4,11.1
		c5.1-6.1,9.8-12.5,14.2-19.1c7.3-11.1,13.7-22.9,18.8-35.1c11.3-26.8,17.1-55.2,17.1-84.5c0-58-22.6-112.5-63.6-153.5
		c-41-41-95.5-63.6-153.5-63.6c-58,0-112.5,22.6-153.5,63.6c-41,41-63.6,95.5-63.6,153.5c0,43.1,12.6,84.7,36.4,120.4
		C323.5,613.5,328.1,619.7,333,625.5z M660.7,368.2c23.6,31.8,37.1,69.8,38.8,109.9h-83.8c-0.8-25.4-4.8-48.5-10.7-69.1
		c9.7-4.2,19.1-9.3,28-15.5C646.3,384.4,655.1,375.2,660.7,368.2z M641.2,345.6c2.9,2.9,5.6,5.8,8.3,8.8
		c-6.1,8.4-20.9,24.9-49.7,37.9c-9.3-26.3-21.3-48-32.2-64.4c-10.4-15.7-20.9-28.1-29.4-37.2C577,298.2,612.6,317.1,641.2,345.6z
		 M508.7,287.3c0.3,0,0.6,0,0.9,0c5.6,4.8,24.8,22.2,43.8,50.8c10.2,15.4,21.4,35.8,30.1,60.6c-19.6,6.7-44.2,11.5-74.8,12.3V287.3z
		 M508.7,428.4c23.7-0.6,52.3-3.8,80-13.1c5.3,18.8,8.9,39.9,9.6,62.8h-89.6V428.4z M491.3,478.1h-89.6c0.7-23,4.3-44,9.6-62.8
		c27.7,9.3,56.3,12.5,80,13.1V478.1z M490.4,287.4c0.3,0,0.6,0,0.9,0V411c-22.2-0.6-49.1-3.6-74.8-12.3
		c8.7-24.8,19.9-45.1,30.1-60.5C465.6,309.5,484.8,292.1,490.4,287.4z M358.8,345.6c28.6-28.6,64.2-47.4,103.1-54.9
		c-8.5,9.1-18.9,21.5-29.4,37.2c-10.9,16.4-22.9,38-32.2,64.4c-7.7-3.5-15.3-7.6-22.4-12.4c-14.5-9.8-23-19.6-27.3-25.5
		C353.2,351.4,355.9,348.5,358.8,345.6z M339.3,368.2c5.6,6.9,14.5,16.1,27.7,25.3c8.9,6.1,18.3,11.2,28,15.5
		c-5.9,20.6-9.9,43.8-10.7,69.1h-83.8C302.2,438,315.7,400.1,339.3,368.2z"/>
	<linearGradient id="XMLID_3_" gradientUnits="userSpaceOnUse" x1="500.007" y1="269.102" x2="500.007" y2="728.1011">
		<stop  offset="0" style="stop-color:#1AE0EE"/>
		<stop  offset="1" style="stop-color:#00B2BF"/>
	</linearGradient>
	<path id="XMLID_27_" class="st1" d="M707.4,702.9c-0.2-0.8-0.6-3.3-0.9-5.5c-2.5-16.6-4.3-24.1-9.3-27.8c-3.7-2.7-11.6-7-24.1-13.8
		c-9.4-5.1-20-10.8-27.8-15.6c-2.6-4.3-6.2-7.3-8.8-9.1c0-1.1-0.1-2.4,0-3.7c1.6-2.9,4-7.9,5.5-15.1c2.6-2.8,6.4-7.7,7.6-13.4
		c0.7-3.3,2.4-11.9-1.4-18.4c2.4-14.5-2.2-33.6-15.2-43.1c-6.5-4.8-14.5-9.6-24.6-9.6l-0.9,0c-10.3,0.3-21,5.6-29.3,14.6
		c-8.2,8.9-12.6,19.7-12.1,29.7c0.1,1.3,0.4,2.7,1,5.4c0.2,1,0.6,2.8,0.9,4.2c-1.5,2.6-3.2,6.5-2.9,11.2c0.7,11.4,5.1,16.9,8.1,19.7
		c1.4,5.5,4.2,12.4,5.7,15.7c0,0.8,0,1.7-0.1,2.4c-2.8,1.9-16.4,15.7-17.2,16.2c-7.4-4-14.8-8.1-20.7-11.7c-2.9-4.8-6.8-8.1-9.7-10
		c-0.1-1.3-0.1-2.9-0.1-4.6c1.8-3,4.4-8.6,6-16.5c2.7-2.9,6.9-8.2,8.1-14.3c0.7-3.5,2.7-12.8-1.6-19.6c2.7-15.5-2.2-35.9-16.1-46.1
		c-6.5-4.8-15.4-10.3-26.2-10.3c-0.3,0-0.6,0-0.9,0c-10.9,0.3-22.3,6-31.1,15.6c-8.7,9.4-13.4,21-12.9,31.6c0.1,1.4,0.4,2.8,1,5.6
		c0.3,1.2,0.8,3.3,1,4.8c-1.6,2.7-3.5,6.9-3.2,11.9c0.7,12.2,5.5,18.1,8.6,21c1.4,6,4.6,13.6,6.2,17.2c0,1.1-0.1,2.2-0.1,3.1
		c-3.1,2-7.6,5.3-11,9.7c-3.2,1.7-6.7,3.6-10.5,5.6c-5.3,2.9-10.3,5.5-14.9,8.1l0.1-0.1c-0.3-0.6-3-6-3.3-6.6l-0.5-0.9
		c-2.6-4.3-6.2-7.3-8.8-9.1c0-1.1-0.1-2.4,0-3.7c1.6-2.9,4-7.9,5.5-15.1c2.6-2.8,6.4-7.7,7.6-13.4c0.7-3.3,2.5-11.9-1.4-18.4
		c2.4-14.5-2.2-33.6-15.2-43.1c-6.1-4.5-14.5-9.6-24.7-9.6l-0.9,0c-10.3,0.3-21,5.6-29.3,14.6c-8.2,8.9-12.6,19.7-12.1,29.7
		c0.1,1.3,0.4,2.6,1,5.3c0.2,1,0.7,2.8,0.9,4.2c-1.5,2.6-3.2,6.5-2.9,11.2c0.7,11.4,5.1,16.9,8.1,19.7c1.4,5.5,4.2,12.3,5.7,15.7
		c0,0.8,0,1.6-0.1,2.4c-2.8,1.8-6.9,4.8-10,8.8c-2.9,1.6-6.1,3.3-9.4,5.1c-22.9,12.3-38.4,20.8-43.8,26.8
		c-4.6,5.2-7.4,16.6-9.7,40.6l-0.1,1.3c-0.6,6.4,1.3,10.8,5.6,13.3l0.1,0.1c2.9,1.6,6,1.6,8.6,1.6c0.7,0,1.4,0,2.1,0
		c2.1,0.1,41.7,0.2,97.7,0.4c0.5,0,1,0,1.5,0c0.7,0,1.5,0,2.4,0c5.6,0.2,167.9,0.7,174.9,0.7c0.5,0,1.6,0.1,2.6,0.1
		c1.8,0.1,4.1,0.3,6.4,0.3c1.9,0,6,0,9.8-1.5c36.4,0.1,81.9,0.2,82,0.2c0.5,0,1.5,0.1,2.4,0.1c1.7,0.1,3.8,0.2,6,0.2
		c3.2,0,13,0,16.7-7.9c1.8-3.8,1.1-8.2-1.3-17.4C707.6,703.6,707.5,703.2,707.4,702.9z M573,653c-0.7-0.4-1.4-0.8-2.1-1.2
		c-3.1-1.7-6.2-3.4-9.4-5.1L573,653z M401.5,668.7c-4.9,5.5-7.8,17.5-10.3,43c-29.9-0.1-77.9-0.2-83.4-0.3
		c2.2-21.2,4.3-26.7,5.2-28.2c4.2-4.4,26.8-16.4,39-23c4.1-2.2,8-4.3,11.4-6.1l2-1.1l1.2-2c1.6-2.7,6-5.4,7.7-6.4
		c1.4-0.9,2.6-1.6,3.7-3.1c0.9-1.2,3-4.1,2.7-14.9l0-1.8L380,623c-2.2-4.8-5.3-12.9-5.7-15.7l-0.3-3.1l-2.2-2.2
		c-0.4-0.3-0.8-0.7-1.3-1.1c-1.4-1.2-3.1-2.7-3.5-8.9c0-0.4,0.5-1.3,0.9-1.9c3.5-4.1,2.4-9,0.7-16.4c-0.2-0.9-0.5-2.1-0.6-2.6
		c-0.2-5.2,2.7-11.5,7.5-16.7c5-5.4,11.3-8.8,16.9-9h0.5c5.1,0,10.1,3.2,14.4,6.3c7.1,5.2,10.7,19,7.6,28.9l-2.1,6.6l4.9,2.9
		c0.1,0.8,0,2.4-0.6,5.5c-0.3,1.6-2.6,4.6-4.5,6.3l-2.3,2.1l-0.5,3.1c-1.2,7.9-4,12.2-4.4,12.8l-1.6,2l-0.1,2.9
		c-0.5,13.2,1.3,15.5,2.5,17.1c1.1,1.4,2.2,2.1,3.2,2.7c1.4,0.9,4.7,2.9,6,5.8l1.1,2.3l2.1,1.4c0.7,0.4,1.3,0.8,2,1.3l0.1,0
		C411.4,660.7,404.7,665.1,401.5,668.7z M592.1,712.9c-1.8,0-3.6-0.1-5.3-0.2c-1.4-0.1-2.7-0.2-3.7-0.2
		c-46.9-0.1-169.7-0.5-174.2-0.7c0,0-0.1,0-0.1,0c2.4-24,4.8-30,5.8-31.5c4.4-4.7,28-17.4,42.2-24.9c4.5-2.4,8.7-4.7,12.4-6.7l2-1.1
		l1.2-2c1.8-3,6.7-6.1,8.5-7.2c1.5-0.9,2.7-1.7,3.8-3.2c0.9-1.3,3.1-4.3,2.8-15.7l0-1.8l-0.7-1.6c-2.7-6-5.8-14.2-6.2-17.2l-0.3-3.1
		l-2.2-2.2c-0.5-0.5-1-0.9-1.4-1.2c-1.6-1.4-3.6-3.1-4-10.1c0-0.6,0.6-1.9,1.1-2.6c3.5-4.2,2.4-9.3,0.6-17.1c-0.2-1-0.5-2.3-0.6-2.9
		c-0.2-5.8,2.9-12.8,8.3-18.6c5.6-6.1,12.6-9.8,18.8-10c0.2,0,0.3,0,0.5,0c5.7,0,11.3,3.5,15.9,6.9c7.9,5.8,12,21,8.5,32l-2,6.6
		l5.1,3c0.1,0.8,0.1,2.6-0.7,6.5c-0.4,2.1-3.2,5.5-5,7.1l-2.3,2.1l-0.5,3.1c-1.3,8.7-4.5,13.6-4.9,14.1l-1.7,2l-0.1,2.9
		c-0.5,13.9,1.3,16.4,2.5,18c1.1,1.4,2.2,2.2,3.3,2.8c1.6,1,5.3,3.2,6.8,6.6l1.1,2.4l2.2,1.4c9.1,5.6,21.8,12.5,33,18.6
		c9.4,5.1,19.2,10.4,23.1,13c1.6,3.5,3.2,14.5,3.8,18.8c0.5,3.4,0.9,5.9,1.3,7.6c0.1,0.4,0.2,0.9,0.4,1.5c0.5,1.9,0.9,3.5,1.2,4.8
		C592.3,712.9,592.2,712.9,592.1,712.9z M687.4,711.8c-1.3-0.1-2.5-0.2-3.5-0.2c0,0-39.3-0.1-74.1-0.2c-0.4-2.2-1-4.7-1.8-7.7
		c-0.1-0.5-0.2-1-0.3-1.3c-0.2-0.9-0.6-3.5-1-6.1c-2.6-17.7-4.6-25.7-9.8-29.6c-3.4-2.5-10.1-6.3-20.4-11.9c0.5-0.3,1-0.5,1.5-0.8
		l2.8-1.5l1.2-2c1.7-2.7,6.1-5.5,7.7-6.5c1.4-0.8,2.5-1.6,3.6-3.1c0.9-1.2,3-4.1,2.7-15l-0.1-1.8l-0.7-1.6
		c-2.5-5.5-5.4-13.1-5.7-15.8l-0.3-3l-2.2-2.2c-0.4-0.4-0.8-0.7-1.3-1.2c-1.4-1.2-3.1-2.7-3.5-8.9c0-0.4,0.5-1.4,0.9-1.9
		c3.5-4.1,2.4-9,0.7-16.4c-0.2-0.9-0.5-2.1-0.6-2.6c-0.2-5.2,2.7-11.5,7.5-16.7c5-5.5,11.3-8.8,16.9-9h0.5c4.1,0,8.3,1.8,14.4,6.3
		c7.1,5.2,10.8,19,7.7,28.9l-2.1,6.6l4.9,2.9c0.1,0.8,0,2.4-0.6,5.5c-0.3,1.6-2.6,4.6-4.5,6.3l-2.3,2.1l-0.5,3.1
		c-1.2,7.9-4,12.3-4.4,12.8l-1.6,2l-0.1,2.9c-0.5,13.1,1.2,15.4,2.5,17.1c1.1,1.4,2.2,2.1,3.2,2.7c1.4,0.9,4.7,2.9,6.1,5.8l1.1,2.4
		l2.2,1.4c8.4,5.2,20.2,11.6,30.7,17.3c8.6,4.6,17.4,9.4,21.1,11.9c1.4,3.4,2.9,13.2,3.4,17.1c0.5,3.2,0.8,5.5,1.2,7
		c0.1,0.4,0.2,0.9,0.4,1.5c0.3,1.3,0.6,2.5,0.9,3.6C690.3,712,688.8,711.9,687.4,711.8z"/>
</g>
</svg>
