<?xml version="1.0" encoding="utf-8"?>
<!-- Generator: Adobe Illustrator 19.0.0, SVG Export Plug-In . SVG Version: 6.00 Build 0)  -->
<svg version="1.1" id="图层_1" xmlns="http://www.w3.org/2000/svg" xmlns:xlink="http://www.w3.org/1999/xlink" x="0px" y="0px"
	 viewBox="0 0 1000 1000" style="enable-background:new 0 0 1000 1000;" xml:space="preserve">
<style type="text/css">
	.st0{fill:url(#SVGID_1_);}
	.st1{fill:url(#SVGID_2_);}
	.st2{fill:url(#XMLID_17_);}
	.st3{fill:url(#XMLID_18_);}
	.st4{fill:url(#XMLID_19_);}
	.st5{fill:url(#XMLID_20_);}
	.st6{fill:url(#XMLID_21_);}
	.st7{fill:url(#XMLID_22_);}
	.st8{fill:url(#XMLID_23_);}
	.st9{fill:url(#XMLID_24_);}
	.st10{fill:url(#SVGID_3_);}
</style>
<g>
	<linearGradient id="SVGID_1_" gradientUnits="userSpaceOnUse" x1="500" y1="294.4939" x2="500" y2="711.2224">
		<stop  offset="0" style="stop-color:#1AE0EE"/>
		<stop  offset="1" style="stop-color:#00B2BF"/>
	</linearGradient>
	<path class="st0" d="M343.2,386.9v321.5h313.7V291.6H438.4L343.2,386.9z M433.3,321.3v60.5h-60.5L433.3,321.3z M639.4,691H360.6
		V399.2h90.2V309h188.7V691z"/>
	<linearGradient id="SVGID_2_" gradientUnits="userSpaceOnUse" x1="268.0005" y1="294.4939" x2="268.0005" y2="711.5701">
		<stop  offset="0" style="stop-color:#1AE0EE"/>
		<stop  offset="1" style="stop-color:#00B2BF"/>
	</linearGradient>
	<path class="st1" d="M183.8,415.9h76.4v-76.4h109.3V322H248l-81.5,81.5V678h159.7v-17.4H183.8V415.9z M196.1,398.5l46.7-46.7v46.7
		H196.1z"/>
	<linearGradient id="XMLID_17_" gradientUnits="userSpaceOnUse" x1="753.7383" y1="294.4939" x2="753.7383" y2="711.5701">
		<stop  offset="0" style="stop-color:#1AE0EE"/>
		<stop  offset="1" style="stop-color:#00B2BF"/>
	</linearGradient>
	<polygon id="XMLID_10_" class="st2" points="673.9,322 673.9,339.4 816.2,339.4 816.2,660.6 673.9,660.6 673.9,678 833.6,678 
		833.6,322 	"/>
	<linearGradient id="XMLID_18_" gradientUnits="userSpaceOnUse" x1="262.8196" y1="294.4939" x2="262.8196" y2="711.5701">
		<stop  offset="0" style="stop-color:#1AE0EE"/>
		<stop  offset="1" style="stop-color:#00B2BF"/>
	</linearGradient>
	<path id="XMLID_9_" class="st3" d="M264.2,568.2c9.9,0,17.5-2.9,22.6-8.6c6.1-6.8,6-15.1,5.8-17.7v-64.7h-17.4v65.6l0.1,0.5
		c0,0,0.1,2.9-1.5,4.7c-2,2.3-6.3,2.8-9.5,2.8c-9.5,0-13.3-3.2-13.7-6c0,0.2,0,0.4,0,0.4l-17.4,0.8
		C233.4,553.6,240.3,568.2,264.2,568.2z"/>
	<linearGradient id="XMLID_19_" gradientUnits="userSpaceOnUse" x1="319.6005" y1="294.4939" x2="319.6005" y2="711.5701">
		<stop  offset="0" style="stop-color:#1AE0EE"/>
		<stop  offset="1" style="stop-color:#00B2BF"/>
	</linearGradient>
	<path id="XMLID_8_" class="st4" d="M310.7,480.4c-5.2,6-7.6,14.3-6.4,22.2c2.1,13.8,17,19.6,30.1,24.7c0.2,0.1,0.5,0.2,0.8,0.3
		v-18.7c-6.3-2.6-13.2-5.9-13.7-8.9c-0.3-2.3,0.1-5.6,2.4-8.3c2.3-2.7,6.2-4.1,11.3-4.1v-17.4C322.1,470.3,314.6,475.8,310.7,480.4z
		"/>
	<linearGradient id="XMLID_20_" gradientUnits="userSpaceOnUse" x1="317.9276" y1="294.4939" x2="317.9276" y2="711.5701">
		<stop  offset="0" style="stop-color:#1AE0EE"/>
		<stop  offset="1" style="stop-color:#00B2BF"/>
	</linearGradient>
	<path id="XMLID_7_" class="st5" d="M317.9,544.1l-17.2,2.3c0.8,5.9,4.5,11.5,10.2,15.5c5.8,4.1,13.1,6.2,21.1,6.2
		c1,0,2.1,0,3.2-0.1v-17.4c-1,0.1-2.1,0.1-3.2,0.1C322.6,550.8,318.2,546.1,317.9,544.1z"/>
	<linearGradient id="XMLID_21_" gradientUnits="userSpaceOnUse" x1="736.0485" y1="294.4939" x2="736.0485" y2="711.5701">
		<stop  offset="0" style="stop-color:#1AE0EE"/>
		<stop  offset="1" style="stop-color:#00B2BF"/>
	</linearGradient>
	<path id="XMLID_6_" class="st6" d="M733.1,547.5c-8.6,0-12.1-4.4-12.3-5.6l-17.2,2.4c0.8,5.6,4.3,11,9.7,14.8
		c5.4,3.8,12.3,5.8,19.9,5.8c8.4,0,20.2-1.7,28.1-9.7c5-5.1,7.5-11.9,7.4-19.7c-0.2-14-14.6-19.5-27.2-24.4
		c-5.9-2.3-16.8-6.5-17.2-9.6c-0.3-1.9,0.1-4.8,2-7.1c2-2.4,5.4-3.6,10-3.6c10,0,12.7,4.8,12.9,5.4c-0.1-0.2-0.1-0.3-0.1-0.3
		l16.2-6.4c-2.4-6-11.1-16.1-29-16.1c-12.4,0-19.5,5.2-23.2,9.6c-4.9,5.7-7.1,13.6-6,21c2,13.1,15.9,18.5,28.2,23.2
		c4.9,1.9,10,3.9,13.3,6c2.3,1.4,2.8,2.4,2.8,2.5c0.1,4.2-1.3,6.2-2.4,7.2C745.9,545.9,740.2,547.5,733.1,547.5z"/>
	<linearGradient id="XMLID_22_" gradientUnits="userSpaceOnUse" x1="684.3384" y1="294.4939" x2="684.3384" y2="711.5701">
		<stop  offset="0" style="stop-color:#1AE0EE"/>
		<stop  offset="1" style="stop-color:#00B2BF"/>
	</linearGradient>
	<path id="XMLID_5_" class="st7" d="M685.1,496.1c-0.1-0.2-0.1-0.3-0.1-0.3l16.2-6.4c-2.4-6-11.1-16.1-29-16.1
		c-1.6,0-3.1,0.1-4.6,0.3v17.6c1.4-0.3,2.9-0.5,4.6-0.5C682.1,490.8,684.8,495.6,685.1,496.1z"/>
	<linearGradient id="XMLID_23_" gradientUnits="userSpaceOnUse" x1="686.0377" y1="294.4939" x2="686.0377" y2="711.5701">
		<stop  offset="0" style="stop-color:#1AE0EE"/>
		<stop  offset="1" style="stop-color:#00B2BF"/>
	</linearGradient>
	<path id="XMLID_4_" class="st8" d="M704.5,535.4c-0.2-14-14.6-19.5-27.2-24.4c-2.7-1-6.4-2.5-9.8-4.1v18.9c1.2,0.5,2.3,0.9,3.5,1.4
		c4.9,1.9,10,3.9,13.3,6c2.3,1.5,2.8,2.4,2.8,2.5c0.1,4.2-1.3,6.2-2.4,7.2c-2.8,2.9-8.5,4.5-15.7,4.5c-0.5,0-1,0-1.5,0v17.4
		c0.5,0,1,0.1,1.5,0.1c8.4,0,20.2-1.7,28.1-9.7C702.1,550.1,704.7,543.3,704.5,535.4z"/>
	<linearGradient id="XMLID_24_" gradientUnits="userSpaceOnUse" x1="499.9995" y1="294.4939" x2="499.9995" y2="711.5701">
		<stop  offset="0" style="stop-color:#1AE0EE"/>
		<stop  offset="1" style="stop-color:#00B2BF"/>
	</linearGradient>
	<path id="XMLID_3_" class="st9" d="M459.4,489.3c-6.1,0-11.8,2.7-15.7,7.5L407,542.1l13.5,11l36.8-45.2c0.7-0.9,1.7-1,2.2-1
		c0.5,0,1.5,0.1,2.2,1l36.8,45.2l13.5-11L492,517.6l23.4-28.8c2-2.5,4.6-2.8,5.9-2.8s3.9,0.4,5.9,2.8l52.2,64.2l13.5-11l-52.2-64.2
		c-4.8-5.9-11.9-9.3-19.4-9.3s-14.7,3.4-19.4,9.3l-21.1,26l-5.7-7C471.3,492.1,465.5,489.3,459.4,489.3L459.4,489.3z"/>
	<linearGradient id="SVGID_3_" gradientUnits="userSpaceOnUse" x1="438.2935" y1="294.4939" x2="438.2935" y2="711.5701">
		<stop  offset="0" style="stop-color:#1AE0EE"/>
		<stop  offset="1" style="stop-color:#00B2BF"/>
	</linearGradient>
	<path class="st10" d="M438.3,443.8c-11.8,0-21.3,9.6-21.3,21.3s9.6,21.3,21.3,21.3s21.3-9.6,21.3-21.3S450,443.8,438.3,443.8z
		 M438.3,469c-2.2,0-3.9-1.8-3.9-3.9s1.8-3.9,3.9-3.9s3.9,1.8,3.9,3.9S440.4,469,438.3,469z"/>
</g>
</svg>
