<?xml version="1.0" encoding="utf-8"?>
<!-- Generator: Adobe Illustrator 19.0.0, SVG Export Plug-In . SVG Version: 6.00 Build 0)  -->
<svg version="1.1" id="图层_1" xmlns="http://www.w3.org/2000/svg" xmlns:xlink="http://www.w3.org/1999/xlink" x="0px" y="0px"
	 viewBox="0 0 1000 1000" style="enable-background:new 0 0 1000 1000;" xml:space="preserve">
<style type="text/css">
	.st0{fill:url(#XMLID_6_);}
	.st1{fill:url(#XMLID_7_);}
	.st2{fill:url(#SVGID_1_);}
</style>
<g>
	
		<linearGradient id="XMLID_6_" gradientUnits="userSpaceOnUse" x1="354.3722" y1="1296.548" x2="349.4744" y2="1724.6863" gradientTransform="matrix(1 0 0 -1 0 2002)">
		<stop  offset="0" style="stop-color:#00B2BF"/>
		<stop  offset="1" style="stop-color:#1AE0EE"/>
	</linearGradient>
	<polygon id="XMLID_4_" class="st0" points="356.8,598.5 379.6,598.5 379.6,581.1 220.4,581.1 220.4,541.9 469.5,541.9 469.5,524.5 
		220.4,524.5 220.4,338.4 500.2,338.4 500.2,321 203,321 203,598.5 339.4,598.5 339.4,666 288.6,666 288.6,683.4 364,683.4 364,666 
		356.8,666 	"/>
	
		<linearGradient id="XMLID_7_" gradientUnits="userSpaceOnUse" x1="382.8421" y1="1293.1018" x2="380.955" y2="1722.688" gradientTransform="matrix(1 0 0 -1 0 2002)">
		<stop  offset="0" style="stop-color:#00B2BF"/>
		<stop  offset="0.8197" style="stop-color:#15D8E6"/>
		<stop  offset="1" style="stop-color:#1AE0EE"/>
	</linearGradient>
	<polygon id="XMLID_3_" class="st1" points="427.6,372.7 381.6,418.7 335.6,372.7 323.3,385 369.3,431 323.3,477.1 335.6,489.4 
		381.6,443.3 427.6,489.4 439.9,477.1 393.9,431 439.9,385 	"/>
	
		<linearGradient id="SVGID_1_" gradientUnits="userSpaceOnUse" x1="584.837" y1="1293.7708" x2="588.0238" y2="1716.5074" gradientTransform="matrix(1 0 0 -1 0 2002)">
		<stop  offset="0" style="stop-color:#00B2BF"/>
		<stop  offset="1" style="stop-color:#1AE0EE"/>
	</linearGradient>
	<path class="st2" d="M792.4,666.6c-0.3-1.1-0.5-2-0.7-2.7c-0.5-2.3-1.3-7.5-2.1-13c-4.7-31.7-8.3-47.8-16.2-53.7
		c-7.8-5.8-28-16.7-51.3-29.3c-21.4-11.6-45.6-24.6-63-35.3c-6.2-11.5-16.3-18.3-21.4-21.5c-0.4-3.4-0.6-10.1-0.5-16.7
		c3.1-4.9,9.4-16.6,12.6-34.9c4.4-4.5,13.5-14.8,15.9-26.3c1.5-7.2,5.2-24.8-4-35.5c3.2-13.9,2.8-30-1.1-45
		c-4.8-18.4-14.4-33.6-27-42.8c-12.8-9.4-28.4-19-47.5-19c-0.5,0-1.1,0-1.6,0c-19.7,0.6-40.2,10.9-56.4,28.5
		c-15.9,17.3-24.5,38.1-23.6,57.1c0.1,2,0.7,4.8,1.9,9.9c0.8,3.5,2.4,10.4,2.7,13.7c-2.7,3.8-7.3,11.8-6.8,21.5
		c1.4,24.2,11.3,33.5,16.6,38.1c2.4,12.5,10.6,31.4,13.3,37.5c0,5.2-0.3,10.6-0.8,13.3c0,0,0,0,0,0c-5.3,3.3-17.2,10.7-24.4,21.1
		c-6.9,3.8-14.7,7.9-22.9,12.3c-45.7,24.5-81.5,44.1-92.2,56c-8.3,9.3-13.9,34.1-18.6,83l-0.2,2.5l0,0c-0.4,3.9-1.4,14.3,7.2,19.1
		c4.1,2.3,8.6,2.3,13.8,2.3c1.6,0,3.3,0,5.1,0.1c11.2,0.4,337.5,1.4,351.4,1.4c1.3,0,3.5,0.1,5.9,0.3c3.5,0.2,7.9,0.5,12.3,0.5
		c9.4,0,22.3-1.2,27-11.3C798.1,692.9,797.3,685.6,792.4,666.6z M768.8,691.6c-3.8,0-7.7-0.3-11.2-0.5c-2.7-0.2-5.1-0.3-7-0.3
		c-117.5-0.4-342.1-1.1-350.8-1.4c-2.1-0.1-4-0.1-5.7-0.1c-1.3,0-2.7,0-3.9-0.1c0-0.6,0-1.3,0.1-2.3l0.2-2.5
		c5.3-55.7,11.2-69.6,14.2-73c9.4-10.5,54.5-34.6,87.4-52.3c9-4.8,17.5-9.4,24.9-13.4l2-1.1l1.2-2c4.8-7.9,15.5-14.6,20.1-17.4
		c2.6-1.6,3.9-2.4,5.1-4.1c3-4.1,4.3-12.9,3.9-26.3l0-1.8l-0.7-1.6c-3.3-7.3-12.1-28.2-13.1-37.3l-0.3-3.1l-2.2-2.2
		c-0.7-0.7-1.5-1.4-2.3-2.1c-4-3.4-10.1-8.6-11.1-26.4c-0.3-4.7,3-9.8,4.3-11.3c4.2-4.8,2.8-11.7-0.6-26.8c-0.6-2.5-1.4-5.9-1.5-6.9
		c-0.7-14.1,6.4-30.7,19-44.3c12.8-13.9,29.3-22.4,44.1-22.9c0.4,0,0.8,0,1.2,0c14,0,26.7,7.9,37.2,15.6
		c9.4,6.9,16.7,18.7,20.5,33.2c3.7,14,3.6,28.9-0.1,41l-2,6.6l5.9,3.5c1.9,1.1,4.6,5.4,1.2,21.4c-1.6,7.6-9.8,16.4-12.8,19.1
		l-2.3,2.1l-0.5,3.1c-3.2,21.1-11.4,32.3-11.4,32.3l-1.7,2.2l-0.1,2.8c-0.9,24.9,2,28.8,3.4,30.6c1.1,1.5,2.4,2.3,4.1,3.3
		c3.5,2.2,12.9,7.9,17.1,17.1l1.1,2.4l2.2,1.4c18,11.2,43.5,25,66,37.2c21.6,11.7,41.9,22.7,49,27.8c4.1,5,8.1,32.2,9.7,42.5
		c1,6.5,1.7,11.5,2.5,14.6c0.2,0.7,0.4,1.7,0.7,2.9c2.5,9.7,3.9,16.2,4.1,19.3C778.4,690.8,775.4,691.6,768.8,691.6z"/>
</g>
</svg>
