<?xml version="1.0" encoding="utf-8"?>
<!-- Generator: Adobe Illustrator 19.0.0, SVG Export Plug-In . SVG Version: 6.00 Build 0)  -->
<svg version="1.1" id="图层_1" xmlns="http://www.w3.org/2000/svg" xmlns:xlink="http://www.w3.org/1999/xlink" x="0px" y="0px"
	 viewBox="0 0 25 25" style="enable-background:new 0 0 25 25;" xml:space="preserve">
<style type="text/css">
	.st0{fill:#A3A3A3;}
</style>
<path id="XMLID_32_" class="st0" d="M12.5,4.2c-0.4,0-0.9,0-1.3,0.1c0,0,0,0,0,0c0.2-0.2,0.4-0.4,0.3-0.7C11.4,3.3,11.1,3,10.6,3
	c-0.1,0-0.2,0-0.3,0C9.8,3.2,9.4,3.6,9.5,4C9.5,4.2,9.8,4.4,10,4.5c0,0,0,0,0,0.1C6.3,5.6,3.6,9,3.6,13.1c0,4.9,4,8.9,8.9,8.9
	c4.9,0,8.9-4,8.9-8.9C21.4,8.2,17.4,4.2,12.5,4.2z M9.8,3.9C9.7,3.7,10,3.4,10.4,3.4c0.1,0,0.2,0,0.2,0c0.3,0,0.5,0.1,0.6,0.3
	c0,0.1-0.1,0.3-0.2,0.4c-0.1-0.1-0.3-0.1-0.5-0.1c-0.2,0-0.3,0.1-0.4,0.3C9.9,4.2,9.8,4.1,9.8,3.9z M17.3,17.9
	c-0.8,0.8-1.8,1.4-2.9,1.7l-0.8-1.3l-0.2,1.5c-0.3,0-0.6,0.1-0.9,0.1c-1.8,0-3.5-0.7-4.8-2C6.9,17,6.3,16.1,6,15l1.3-0.8L5.8,14
	c0-0.3-0.1-0.6-0.1-0.9c0-1.8,0.7-3.5,2-4.8c0.8-0.8,1.8-1.4,2.9-1.7l0.8,1.3l0.2-1.5c0.3,0,0.6-0.1,0.9-0.1c1.8,0,3.5,0.7,4.8,2
	c0.8,0.8,1.4,1.8,1.7,2.9L17.7,12l1.5,0.2c0,0.3,0.1,0.6,0.1,0.9C19.2,14.9,18.5,16.6,17.3,17.9z M17.1,8.5l-3.6,2.8
	c-0.3-0.1-0.6-0.2-0.9-0.2l-0.9-2l-0.1,2.2c-0.2,0.1-0.5,0.3-0.6,0.5l-1.2-0.4l0.9,0.9c-0.1,0.2-0.2,0.5-0.2,0.8l-2,0.9l2.2,0.1
	c0,0,0,0,0,0l-2.8,3.6l3.6-2.8c0.3,0.1,0.6,0.2,0.9,0.2l0.9,2l0.1-2.2c0.2-0.1,0.5-0.3,0.6-0.5l1.2,0.4L14.4,14
	c0.1-0.3,0.2-0.5,0.2-0.8l2-0.9l-2.2-0.1c0,0,0,0,0,0L17.1,8.5z M12.5,11.3L12.5,11.3L12.5,11.3L12.5,11.3z M12.1,11.4
	c0.1,0,0.2,0,0.4,0c0.1,0,0.2,0,0.2,0l0,0l0,0c0.2,0,0.3,0.1,0.5,0.1l-1.3,1l-1,1.3c0-0.1-0.1-0.2-0.1-0.3
	C10.6,12.5,11.2,11.6,12.1,11.4z M13.4,14.6L13.4,14.6L13.4,14.6c-0.2,0.1-0.4,0.2-0.6,0.2c-0.1,0-0.2,0-0.4,0c-0.1,0-0.2,0-0.2,0
	l0,0l0,0c-0.2,0-0.3-0.1-0.5-0.1l1.3-1l1-1.3c0,0.1,0.1,0.2,0.1,0.3C14.4,13.5,14.1,14.2,13.4,14.6z"/>
</svg>
