<?xml version="1.0" encoding="utf-8"?>
<!-- Generator: Adobe Illustrator 19.0.0, SVG Export Plug-In . SVG Version: 6.00 Build 0)  -->
<svg version="1.1" id="图层_1" xmlns="http://www.w3.org/2000/svg" xmlns:xlink="http://www.w3.org/1999/xlink" x="0px" y="0px"
	 viewBox="0 0 25 25" style="enable-background:new 0 0 25 25;" xml:space="preserve">
<style type="text/css">
	.st0{fill:#A3A3A3;}
</style>
<g id="Layer_1">
	<path id="XMLID_31_" class="st0" d="M8.3,4.5c-5.8,1-7.8,7.6-3.1,10.7c0.3,0.2,0.3,0.1-0.1,1.3l-0.3,1l1.2-0.6l1.2-0.6l0.6,0.2
		c0.7,0.2,1.5,0.3,2.1,0.3h0.3L10,16.1c-0.9-3.4,2.3-6.7,6.4-6.7h0.6L16.8,9C15.9,5.8,12.1,3.8,8.3,4.5z M7.8,7.4
		c0.6,0.4,0.7,1.3,0.1,1.7c-1,0.6-2.1-0.5-1.4-1.4C6.7,7.3,7.4,7.1,7.8,7.4z M12.8,7.4c1,0.7,0.3,2.3-0.9,1.8
		c-0.8-0.3-0.9-1.4-0.2-1.9C12.1,7.2,12.5,7.2,12.8,7.4z M15.1,9.9c-2.9,0.5-4.9,2.7-4.8,5.2c0.2,3.4,4.1,5.7,7.9,4.7l0.4-0.1
		l0.9,0.5c0.5,0.3,1,0.5,1,0.5c0,0-0.1-0.4-0.2-0.8C20,18.9,20,19,20.4,18.7C25,15.4,21,8.8,15.1,9.9z M14.9,12.6
		c0.3,0.2,0.4,0.6,0.3,0.9c-0.2,0.7-1.2,0.7-1.5,0.1C13.4,12.9,14.3,12.2,14.9,12.6z M19,12.7c0.4,0.4,0.3,1-0.1,1.3
		c-0.7,0.4-1.5-0.4-1.1-1.1C18,12.5,18.6,12.4,19,12.7z"/>
</g>
</svg>
