<?xml version="1.0" encoding="utf-8"?>
<!-- Generator: Adobe Illustrator 19.0.0, SVG Export Plug-In . SVG Version: 6.00 Build 0)  -->
<svg version="1.1" id="图层_1" xmlns="http://www.w3.org/2000/svg" xmlns:xlink="http://www.w3.org/1999/xlink" x="0px" y="0px"
	 viewBox="0 0 25 25" style="enable-background:new 0 0 25 25;" xml:space="preserve">
<style type="text/css">
	.st0{fill:#A3A3A3;}
</style>
<path id="XMLID_30_" class="st0" d="M15.9,4.5c-0.6,0.3-0.8,0.9-0.3,1.4c0.2,0.2,0.4,0.3,1.4,0.3c1.3,0,2.2,0.3,2.8,1.1
	c0.8,0.9,0.9,1.2,0.9,2.8c0,1.5,0,1.5,0.3,1.7c0.8,0.4,1.3-0.1,1.5-1.6c0.2-1.9-0.9-4.1-2.6-5.2C18.7,4.4,16.8,4.1,15.9,4.5
	L15.9,4.5z M9.5,6.9C8,7.5,6.6,8.5,5,10.1c-3.6,3.8-3.4,7.5,0.6,9.4c4.1,2,9.7,1.4,12.7-1.5c2.3-2.2,2-4.9-0.6-5.8
	c-0.5-0.2-0.6-0.3-0.5-0.4c0.2-0.6,0.3-1.2,0.2-1.6c-0.4-1.2-1.9-1.5-4.1-0.8l-0.9,0.3l0.1-0.9c0.1-1-0.1-1.6-0.7-1.9
	C11.3,6.6,10.3,6.6,9.5,6.9L9.5,6.9z M13.1,12c2,0.5,3.1,1.7,3.1,3.1c0,1.6-1.4,3-3.6,3.7C11.4,19.2,9.2,19.3,8,19
	c-2.1-0.6-3.3-1.7-3.3-3.2c0-0.8,0.4-1.5,1.1-2.2c0.7-0.7,1.3-1,2.3-1.4C9.8,11.6,11.6,11.6,13.1,12L13.1,12z M9,13.3
	c-1.3,0.6-2,1.6-2,2.7c0,1.1,0.5,1.8,1.5,2.4c0.8,0.4,2.3,0.4,3.2-0.1c1.1-0.6,1.9-1.7,1.9-2.8c0-0.9-0.8-2-1.7-2.3
	C11,12.9,9.8,12.9,9,13.3L9,13.3z M9.9,15.7c0.1,0.1,0.2,0.3,0.2,0.5c0,0.7-1.1,1.2-1.5,0.7c-0.2-0.2-0.2-0.9,0.1-1.2
	C8.9,15.6,9.7,15.5,9.9,15.7L9.9,15.7z M16.1,7.2c-0.6,0.6-0.2,1.3,0.8,1.3c0.8,0,1.2,0.4,1.2,1.4c0,0.6,0.1,0.8,0.3,0.9
	c0.7,0.5,1.3-0.1,1.3-1.2c0-1.4-1-2.5-2.5-2.6C16.5,6.9,16.4,7,16.1,7.2L16.1,7.2z"/>
</svg>
